<svg viewBox="0 0 24 24" fill="none" xmlns="http://www.w3.org/2000/svg">
<mask id="mask0_195_2458" style="mask-type:alpha" maskUnits="userSpaceOnUse" x="2" y="2" width="20" height="20">
<rect x="2" y="2" width="20" height="20" fill="#D9D9D9"/>
</mask>
<g mask="url(#mask0_195_2458)">
<path d="M6.99967 8.66683C6.54134 8.66683 6.14912 8.5035 5.82301 8.17683C5.49634 7.85072 5.33301 7.4585 5.33301 7.00016C5.33301 6.54183 5.49634 6.14961 5.82301 5.8235C6.14912 5.49683 6.54134 5.3335 6.99967 5.3335C7.45801 5.3335 7.85023 5.49683 8.17634 5.8235C8.50301 6.14961 8.66634 6.54183 8.66634 7.00016C8.66634 7.4585 8.50301 7.85072 8.17634 8.17683C7.85023 8.5035 7.45801 8.66683 6.99967 8.66683ZM11.9997 18.6668C11.5413 18.6668 11.1491 18.5038 10.823 18.1777C10.4963 17.851 10.333 17.4585 10.333 17.0002C10.333 16.5418 10.4963 16.1493 10.823 15.8227C11.1491 15.4966 11.5413 15.3335 11.9997 15.3335C12.458 15.3335 12.8505 15.4966 13.1772 15.8227C13.5033 16.1493 13.6663 16.5418 13.6663 17.0002C13.6663 17.4585 13.5033 17.851 13.1772 18.1777C12.8505 18.5038 12.458 18.6668 11.9997 18.6668ZM6.99967 18.6668C6.54134 18.6668 6.14912 18.5038 5.82301 18.1777C5.49634 17.851 5.33301 17.4585 5.33301 17.0002C5.33301 16.5418 5.49634 16.1493 5.82301 15.8227C6.14912 15.4966 6.54134 15.3335 6.99967 15.3335C7.45801 15.3335 7.85023 15.4966 8.17634 15.8227C8.50301 16.1493 8.66634 16.5418 8.66634 17.0002C8.66634 17.4585 8.50301 17.851 8.17634 18.1777C7.85023 18.5038 7.45801 18.6668 6.99967 18.6668ZM6.99967 13.6668C6.54134 13.6668 6.14912 13.5035 5.82301 13.1768C5.49634 12.8507 5.33301 12.4585 5.33301 12.0002C5.33301 11.5418 5.49634 11.1493 5.82301 10.8227C6.14912 10.4966 6.54134 10.3335 6.99967 10.3335C7.45801 10.3335 7.85023 10.4966 8.17634 10.8227C8.50301 11.1493 8.66634 11.5418 8.66634 12.0002C8.66634 12.4585 8.50301 12.8507 8.17634 13.1768C7.85023 13.5035 7.45801 13.6668 6.99967 13.6668ZM11.9997 13.6668C11.5413 13.6668 11.1491 13.5035 10.823 13.1768C10.4963 12.8507 10.333 12.4585 10.333 12.0002C10.333 11.5418 10.4963 11.1493 10.823 10.8227C11.1491 10.4966 11.5413 10.3335 11.9997 10.3335C12.458 10.3335 12.8505 10.4966 13.1772 10.8227C13.5033 11.1493 13.6663 11.5418 13.6663 12.0002C13.6663 12.4585 13.5033 12.8507 13.1772 13.1768C12.8505 13.5035 12.458 13.6668 11.9997 13.6668ZM16.9997 8.66683C16.5413 8.66683 16.1488 8.5035 15.8222 8.17683C15.4961 7.85072 15.333 7.4585 15.333 7.00016C15.333 6.54183 15.4961 6.14961 15.8222 5.8235C16.1488 5.49683 16.5413 5.3335 16.9997 5.3335C17.458 5.3335 17.8505 5.49683 18.1772 5.8235C18.5033 6.14961 18.6663 6.54183 18.6663 7.00016C18.6663 7.4585 18.5033 7.85072 18.1772 8.17683C17.8505 8.5035 17.458 8.66683 16.9997 8.66683ZM11.9997 8.66683C11.5413 8.66683 11.1491 8.5035 10.823 8.17683C10.4963 7.85072 10.333 7.4585 10.333 7.00016C10.333 6.54183 10.4963 6.14961 10.823 5.8235C11.1491 5.49683 11.5413 5.3335 11.9997 5.3335C12.458 5.3335 12.8505 5.49683 13.1772 5.8235C13.5033 6.14961 13.6663 6.54183 13.6663 7.00016C13.6663 7.4585 13.5033 7.85072 13.1772 8.17683C12.8505 8.5035 12.458 8.66683 11.9997 8.66683ZM16.9997 13.6668C16.5413 13.6668 16.1488 13.5035 15.8222 13.1768C15.4961 12.8507 15.333 12.4585 15.333 12.0002C15.333 11.5418 15.4961 11.1493 15.8222 10.8227C16.1488 10.4966 16.5413 10.3335 16.9997 10.3335C17.458 10.3335 17.8505 10.4966 18.1772 10.8227C18.5033 11.1493 18.6663 11.5418 18.6663 12.0002C18.6663 12.4585 18.5033 12.8507 18.1772 13.1768C17.8505 13.5035 17.458 13.6668 16.9997 13.6668ZM16.9997 18.6668C16.5413 18.6668 16.1488 18.5038 15.8222 18.1777C15.4961 17.851 15.333 17.4585 15.333 17.0002C15.333 16.5418 15.4961 16.1493 15.8222 15.8227C16.1488 15.4966 16.5413 15.3335 16.9997 15.3335C17.458 15.3335 17.8505 15.4966 18.1772 15.8227C18.5033 16.1493 18.6663 16.5418 18.6663 17.0002C18.6663 17.4585 18.5033 17.851 18.1772 18.1777C17.8505 18.5038 17.458 18.6668 16.9997 18.6668Z" fill="#F1F1F1"/>
</g>
</svg>
