<svg width="20" height="20" viewBox="0 0 20 20" fill="none" xmlns="http://www.w3.org/2000/svg">
<mask id="mask0_45_891" style="mask-type:alpha" maskUnits="userSpaceOnUse" x="0" y="0" width="20" height="20">
<rect width="20" height="20" fill="#D9D9D9"/>
</mask>
<g mask="url(#mask0_45_891)">
<path d="M4.99967 6.66683C4.54134 6.66683 4.14912 6.5035 3.82301 6.17683C3.49634 5.85072 3.33301 5.4585 3.33301 5.00016C3.33301 4.54183 3.49634 4.14961 3.82301 3.8235C4.14912 3.49683 4.54134 3.3335 4.99967 3.3335C5.45801 3.3335 5.85023 3.49683 6.17634 3.8235C6.50301 4.14961 6.66634 4.54183 6.66634 5.00016C6.66634 5.4585 6.50301 5.85072 6.17634 6.17683C5.85023 6.5035 5.45801 6.66683 4.99967 6.66683ZM9.99967 16.6668C9.54134 16.6668 9.14912 16.5038 8.82301 16.1777C8.49634 15.851 8.33301 15.4585 8.33301 15.0002C8.33301 14.5418 8.49634 14.1493 8.82301 13.8227C9.14912 13.4966 9.54134 13.3335 9.99967 13.3335C10.458 13.3335 10.8505 13.4966 11.1772 13.8227C11.5033 14.1493 11.6663 14.5418 11.6663 15.0002C11.6663 15.4585 11.5033 15.851 11.1772 16.1777C10.8505 16.5038 10.458 16.6668 9.99967 16.6668ZM4.99967 16.6668C4.54134 16.6668 4.14912 16.5038 3.82301 16.1777C3.49634 15.851 3.33301 15.4585 3.33301 15.0002C3.33301 14.5418 3.49634 14.1493 3.82301 13.8227C4.14912 13.4966 4.54134 13.3335 4.99967 13.3335C5.45801 13.3335 5.85023 13.4966 6.17634 13.8227C6.50301 14.1493 6.66634 14.5418 6.66634 15.0002C6.66634 15.4585 6.50301 15.851 6.17634 16.1777C5.85023 16.5038 5.45801 16.6668 4.99967 16.6668ZM4.99967 11.6668C4.54134 11.6668 4.14912 11.5035 3.82301 11.1768C3.49634 10.8507 3.33301 10.4585 3.33301 10.0002C3.33301 9.54183 3.49634 9.14933 3.82301 8.82266C4.14912 8.49655 4.54134 8.3335 4.99967 8.3335C5.45801 8.3335 5.85023 8.49655 6.17634 8.82266C6.50301 9.14933 6.66634 9.54183 6.66634 10.0002C6.66634 10.4585 6.50301 10.8507 6.17634 11.1768C5.85023 11.5035 5.45801 11.6668 4.99967 11.6668ZM9.99967 11.6668C9.54134 11.6668 9.14912 11.5035 8.82301 11.1768C8.49634 10.8507 8.33301 10.4585 8.33301 10.0002C8.33301 9.54183 8.49634 9.14933 8.82301 8.82266C9.14912 8.49655 9.54134 8.3335 9.99967 8.3335C10.458 8.3335 10.8505 8.49655 11.1772 8.82266C11.5033 9.14933 11.6663 9.54183 11.6663 10.0002C11.6663 10.4585 11.5033 10.8507 11.1772 11.1768C10.8505 11.5035 10.458 11.6668 9.99967 11.6668ZM14.9997 6.66683C14.5413 6.66683 14.1488 6.5035 13.8222 6.17683C13.4961 5.85072 13.333 5.4585 13.333 5.00016C13.333 4.54183 13.4961 4.14961 13.8222 3.8235C14.1488 3.49683 14.5413 3.3335 14.9997 3.3335C15.458 3.3335 15.8505 3.49683 16.1772 3.8235C16.5033 4.14961 16.6663 4.54183 16.6663 5.00016C16.6663 5.4585 16.5033 5.85072 16.1772 6.17683C15.8505 6.5035 15.458 6.66683 14.9997 6.66683ZM9.99967 6.66683C9.54134 6.66683 9.14912 6.5035 8.82301 6.17683C8.49634 5.85072 8.33301 5.4585 8.33301 5.00016C8.33301 4.54183 8.49634 4.14961 8.82301 3.8235C9.14912 3.49683 9.54134 3.3335 9.99967 3.3335C10.458 3.3335 10.8505 3.49683 11.1772 3.8235C11.5033 4.14961 11.6663 4.54183 11.6663 5.00016C11.6663 5.4585 11.5033 5.85072 11.1772 6.17683C10.8505 6.5035 10.458 6.66683 9.99967 6.66683ZM14.9997 11.6668C14.5413 11.6668 14.1488 11.5035 13.8222 11.1768C13.4961 10.8507 13.333 10.4585 13.333 10.0002C13.333 9.54183 13.4961 9.14933 13.8222 8.82266C14.1488 8.49655 14.5413 8.3335 14.9997 8.3335C15.458 8.3335 15.8505 8.49655 16.1772 8.82266C16.5033 9.14933 16.6663 9.54183 16.6663 10.0002C16.6663 10.4585 16.5033 10.8507 16.1772 11.1768C15.8505 11.5035 15.458 11.6668 14.9997 11.6668ZM14.9997 16.6668C14.5413 16.6668 14.1488 16.5038 13.8222 16.1777C13.4961 15.851 13.333 15.4585 13.333 15.0002C13.333 14.5418 13.4961 14.1493 13.8222 13.8227C14.1488 13.4966 14.5413 13.3335 14.9997 13.3335C15.458 13.3335 15.8505 13.4966 16.1772 13.8227C16.5033 14.1493 16.6663 14.5418 16.6663 15.0002C16.6663 15.4585 16.5033 15.851 16.1772 16.1777C15.8505 16.5038 15.458 16.6668 14.9997 16.6668Z" fill="#F1F1F1"/>
</g>
</svg>
