<svg viewBox="0 0 24 25" fill="none" xmlns="http://www.w3.org/2000/svg">
<mask id="mask0_166_118" style="mask-type:alpha" maskUnits="userSpaceOnUse" x="0" y="0" width="24" height="25">
<rect y="0.5" width="24" height="24" fill="#D9D9D9"/>
</mask>
<g mask="url(#mask0_166_118)">
<path d="M4 19.5V17.5H6V10.5C6 9.11667 6.41667 7.88733 7.25 6.812C8.08333 5.73733 9.16667 5.03333 10.5 4.7V4C10.5 3.58333 10.646 3.22933 10.938 2.938C11.2293 2.646 11.5833 2.5 12 2.5C12.4167 2.5 12.7707 2.646 13.062 2.938C13.354 3.22933 13.5 3.58333 13.5 4V4.7C14.8333 5.03333 15.9167 5.73733 16.75 6.812C17.5833 7.88733 18 9.11667 18 10.5V17.5H20V19.5H4ZM12 22.5C11.45 22.5 10.9793 22.3043 10.588 21.913C10.196 21.521 10 21.05 10 20.5H14C14 21.05 13.8043 21.521 13.413 21.913C13.021 22.3043 12.55 22.5 12 22.5ZM8 17.5H16V10.5C16 9.4 15.6083 8.45833 14.825 7.675C14.0417 6.89167 13.1 6.5 12 6.5C10.9 6.5 9.95833 6.89167 9.175 7.675C8.39167 8.45833 8 9.4 8 10.5V17.5Z" fill="#939598"/>
</g>
</svg>
