<svg width="25" height="24" viewBox="0 0 25 24" fill="none" xmlns="http://www.w3.org/2000/svg">
<path d="M0.5 4C0.5 1.79086 2.29086 0 4.5 0H20.5C22.7091 0 24.5 1.79086 24.5 4V20C24.5 22.2091 22.7091 24 20.5 24H4.5C2.29086 24 0.5 22.2091 0.5 20V4Z" fill="white"/>
<path d="M12.5 8.2V5H4.5V19.4H20.5V8.2H12.5ZM7.7 17.8H6.1V16.2H7.7V17.8ZM7.7 14.6H6.1V13H7.7V14.6ZM7.7 11.4H6.1V9.8H7.7V11.4ZM7.7 8.2H6.1V6.6H7.7V8.2ZM10.9 17.8H9.3V16.2H10.9V17.8ZM10.9 14.6H9.3V13H10.9V14.6ZM10.9 11.4H9.3V9.8H10.9V11.4ZM10.9 8.2H9.3V6.6H10.9V8.2ZM18.9 17.8H12.5V16.2H14.1V14.6H12.5V13H14.1V11.4H12.5V9.8H18.9V17.8ZM17.3 11.4H15.7V13H17.3V11.4ZM17.3 14.6H15.7V16.2H17.3V14.6Z" fill="#7B61FF"/>
</svg>
