<svg width="25" height="24" viewBox="0 0 25 24" fill="none" xmlns="http://www.w3.org/2000/svg">
<path d="M0.5 4C0.5 1.79086 2.29086 0 4.5 0H20.5C22.7091 0 24.5 1.79086 24.5 4V20C24.5 22.2091 22.7091 24 20.5 24H4.5C2.29086 24 0.5 22.2091 0.5 20V4Z" fill="white"/>
<mask id="mask0_45_936" style="mask-type:alpha" maskUnits="userSpaceOnUse" x="0" y="0" width="25" height="24">
<rect x="0.5" width="24" height="24" fill="#D9D9D9"/>
</mask>
<g mask="url(#mask0_45_936)">
<path d="M11.7889 20V18.0889C11.0037 17.9111 10.3261 17.5704 9.756 17.0667C9.18533 16.563 8.76667 15.8519 8.5 14.9333L10.1444 14.2667C10.3667 14.9778 10.6964 15.5185 11.1338 15.8889C11.5705 16.2593 12.1444 16.4444 12.8556 16.4444C13.463 16.4444 13.9779 16.3076 14.4004 16.0338C14.8224 15.7594 15.0333 15.3333 15.0333 14.7556C15.0333 14.237 14.8704 13.8258 14.5444 13.5218C14.2185 13.2184 13.463 12.8741 12.2778 12.4889C11.0037 12.0889 10.1296 11.6113 9.65556 11.056C9.18148 10.5001 8.94444 9.82222 8.94444 9.02222C8.94444 8.05926 9.25556 7.31111 9.87778 6.77778C10.5 6.24444 11.137 5.94074 11.7889 5.86667V4H13.5667V5.86667C14.3074 5.98519 14.9187 6.25541 15.4004 6.67733C15.8816 7.09985 16.2333 7.61481 16.4556 8.22222L14.8111 8.93333C14.6333 8.45926 14.3815 8.1037 14.0556 7.86667C13.7296 7.62963 13.2852 7.51111 12.7222 7.51111C12.0704 7.51111 11.5741 7.6557 11.2333 7.94489C10.8926 8.23348 10.7222 8.59259 10.7222 9.02222C10.7222 9.51111 10.9444 9.8963 11.3889 10.1778C11.8333 10.4593 12.6037 10.7556 13.7 11.0667C14.7222 11.363 15.4964 11.8332 16.0227 12.4773C16.5483 13.1221 16.8111 13.8667 16.8111 14.7111C16.8111 15.763 16.5 16.563 15.8778 17.1111C15.2556 17.6593 14.4852 18 13.5667 18.1333V20H11.7889Z" fill="#7B61FF"/>
</g>
</svg>
