<svg viewBox="0 0 80 8" fill="none" xmlns="http://www.w3.org/2000/svg">
<g clip-path="url(#clip0_121_1137)">
<path d="M39.8068 7.50054L39.9571 7.53882L39.8074 7.49951L39.8068 7.50054Z" fill="#318BFA"/>
<path d="M50.8368 1.88715C50.8368 1.75509 50.8087 1.62943 50.7571 1.51522C50.7118 1.41194 50.6465 1.31765 50.5674 1.23624L50.5279 1.19848C50.4305 1.10769 50.3141 1.03527 50.1869 0.985743C50.0643 0.938078 49.929 0.911769 49.7868 0.911769H44.6638C44.5228 0.911769 44.3876 0.938078 44.2649 0.985743C44.0081 1.08396 43.7995 1.277 43.6929 1.51522C43.6425 1.62943 43.6138 1.75478 43.6138 1.88715V6.13967C43.6138 6.27173 43.6425 6.39739 43.6929 6.51181C43.7995 6.74869 44.0082 6.9441 44.2638 7.04273C44.3876 7.08957 44.5229 7.11619 44.6639 7.11619H49.7869C49.9279 7.11619 50.0643 7.0906 50.1871 7.04273C50.3153 6.99321 50.4323 6.92026 50.5292 6.83082L50.528 6.82978L50.5298 6.82927C50.6261 6.73879 50.7046 6.63169 50.7574 6.51191C50.8089 6.3975 50.837 6.27183 50.837 6.13977V4.40557H48.5999C48.3895 4.40557 48.1775 4.40557 48.1775 4.01372C48.1775 3.62218 48.3895 3.62218 48.5999 3.62218H51.2594C51.4708 3.62218 51.6812 3.8178 51.6812 4.01372V6.13977C51.6812 6.37614 51.6302 6.60353 51.5368 6.81059C51.4411 7.02519 51.2989 7.21956 51.1247 7.38247V7.38299H51.1228C50.9492 7.5459 50.7399 7.67692 50.509 7.76637C50.2855 7.85211 50.0412 7.9006 49.7868 7.9006H44.6638C44.4099 7.9006 44.1658 7.85211 43.9417 7.76637C43.7101 7.67641 43.5014 7.54538 43.3261 7.38247L43.3255 7.38299C43.1513 7.22008 43.0096 7.02684 42.9134 6.81121C42.8211 6.60415 42.7689 6.37624 42.7689 6.13988V1.88715C42.7689 1.40823 42.965 0.979656 43.3255 0.644762C43.5003 0.482679 43.7089 0.351652 43.9417 0.261686C44.1646 0.175435 44.4094 0.127563 44.6638 0.127563H49.7868C50.0412 0.127563 50.2866 0.175435 50.509 0.261686C50.988 0.446982 51.339 0.77548 51.5367 1.21664C51.6301 1.42402 51.6811 1.6513 51.6811 1.88725C51.6811 2.08369 51.6811 2.27962 51.2593 2.27962C51.0638 2.27962 50.9577 2.22205 50.8964 2.13724H50.8976C50.8368 2.05377 50.8368 1.9702 50.8368 1.88715Z" fill="#318BFA"/>
<path d="M22.6664 7.509V0.588989C22.6664 0.486746 22.7179 0.38832 22.7953 0.31641C22.8726 0.244499 22.9792 0.197144 23.0888 0.197144H24.6387C24.6936 0.197144 24.7682 0.220357 24.8324 0.252237V0.251205C24.8953 0.282673 24.9573 0.327036 24.9887 0.369956L29.8921 7.11613H30.7966V0.588989C30.7966 0.393066 30.7966 0.197144 31.2196 0.197144C31.6404 0.197144 31.6404 0.393066 31.6404 0.588989V7.50797C31.6404 7.6096 31.5888 7.70916 31.512 7.78065V7.77952C31.4341 7.85195 31.3275 7.90044 31.2196 7.90044H29.6687C29.6149 7.90044 29.5404 7.8765 29.4767 7.84503C29.412 7.81357 29.35 7.76889 29.3191 7.72731L24.4151 0.980834H23.5106V7.509C23.5106 7.70441 23.5106 7.90033 23.0886 7.90033C22.8926 7.90033 22.7872 7.84328 22.7264 7.75816H22.727C22.6664 7.67511 22.6664 7.59216 22.6664 7.509Z" fill="#318BFA"/>
<path d="M59.8899 7.90054H53.1707C52.9598 7.90054 52.7488 7.70461 52.7488 7.50807V0.519653C52.7488 0.32373 52.9597 0.127808 53.1707 0.127808H59.8899C60.1003 0.127808 60.3118 0.127808 60.3118 0.519653C60.3118 0.911807 60.1003 0.911807 59.8899 0.911807H53.5925V7.11623H59.8899C60.1003 7.11623 60.3118 7.11623 60.3118 7.50807C60.3118 7.90053 60.1003 7.90054 59.8899 7.90054Z" fill="#318BFA"/>
<path d="M0 7.41114V0.491642C0 0.389915 0.0522001 0.29118 0.128945 0.219888C0.206357 0.147978 0.312979 0.0994873 0.422377 0.0994873H3.12434C3.15644 0.0994873 3.21253 0.113106 3.26184 0.129097C3.31004 0.145089 3.36269 0.167684 3.38801 0.186873H3.38912L5.72302 1.9282L8.05692 0.18677C8.08224 0.168406 8.13544 0.144986 8.1842 0.128994H8.18298C8.23229 0.113106 8.28849 0.0994873 8.32059 0.0994873H11.0226C11.1325 0.0994873 11.2391 0.147978 11.316 0.219888C11.3927 0.29118 11.4456 0.389915 11.4456 0.491642V7.41114C11.4456 7.60706 11.4456 7.80309 11.0226 7.80309C10.8276 7.80309 10.721 7.74655 10.6603 7.66144C10.6012 7.57838 10.6012 7.49481 10.6012 7.41114V0.884003H8.4673L6.14606 2.61604V7.41114C6.14606 7.42074 6.14495 7.42827 6.14495 7.43508V7.43776C6.14495 7.44302 6.14495 7.44839 6.14262 7.46015C6.14318 7.4617 6.14318 7.46438 6.14318 7.47026C6.14318 7.47129 6.14318 7.475 6.14318 7.475V7.47604C6.14262 7.48078 6.14262 7.47707 6.13973 7.50369V7.50534C6.13973 7.51008 6.13918 7.51545 6.1374 7.52184C6.1374 7.5399 6.13396 7.54846 6.13451 7.54423C6.13174 7.55919 6.12652 7.5756 6.12074 7.5921V7.59159C6.11385 7.61284 6.10353 7.63358 6.09153 7.65277L6.08975 7.65174C6.05821 7.70074 6.01068 7.74119 5.94071 7.76832C5.8834 7.79071 5.81287 7.80402 5.72291 7.80402C5.52688 7.80402 5.42082 7.74645 5.36006 7.66133C5.30098 7.57879 5.30098 7.49471 5.30098 7.41104V2.61604L2.97763 0.884003H0.844309V7.41114C0.844309 7.60706 0.844309 7.80309 0.422488 7.80309C0.227015 7.80309 0.12106 7.74655 0.0603078 7.66144C0 7.57828 0 7.49471 0 7.41114Z" fill="#318BFA"/>
<path d="M20.748 7.50799V4.40552H14.2351C14.0243 4.40552 13.8133 4.40552 13.8133 4.01368C13.8133 3.62183 14.0242 3.62183 14.2351 3.62183H20.748V0.980852H14.8897L13.4563 2.66306V7.50789C13.4563 7.70381 13.4563 7.90035 13.0333 7.90035C12.6113 7.90035 12.6113 7.70391 12.6113 7.50789V2.52605C12.6113 2.49654 12.6251 2.44537 12.6412 2.39987C12.659 2.35406 12.6825 2.30454 12.702 2.28246L14.3538 0.345523H14.3544C14.3848 0.309826 14.4456 0.271549 14.5063 0.244621L14.5069 0.244415C14.5658 0.217281 14.6364 0.197266 14.6851 0.197266H21.1709C21.2793 0.197266 21.3859 0.244621 21.4632 0.317048V0.316429C21.54 0.388339 21.5922 0.486765 21.5922 0.589007V7.50799C21.5922 7.70391 21.5922 7.90045 21.1709 7.90045C20.748 7.90045 20.748 7.70402 20.748 7.50799Z" fill="#318BFA"/>
<path d="M40.8729 7.50799V4.40552H34.3595C34.1486 4.40552 33.9377 4.40552 33.9377 4.01368C33.9377 3.62183 34.1485 3.62183 34.3595 3.62183H40.8729V0.980852H35.0153L33.5806 2.66306V7.50789C33.5806 7.70381 33.5806 7.90035 33.1571 7.90035C32.7364 7.90035 32.7364 7.70391 32.7364 7.50789V2.52605C32.7364 2.49654 32.7502 2.44537 32.7663 2.39987C32.7835 2.35406 32.8076 2.30454 32.827 2.28246L34.4789 0.345523C34.5099 0.309826 34.5706 0.271549 34.6301 0.244621L34.6314 0.244415C34.6909 0.217281 34.7609 0.197266 34.8095 0.197266H41.295C41.4049 0.197266 41.5104 0.244621 41.5884 0.317048V0.316429C41.6652 0.388339 41.7168 0.486765 41.7168 0.589007V7.50799C41.7168 7.70391 41.7168 7.90045 41.295 7.90045C40.8729 7.90045 40.8729 7.70402 40.8729 7.50799Z" fill="#318BFA"/>
<path d="M56.4022 4.40557H56.3026H54.4112C54.2003 4.40557 53.9893 4.40557 53.9893 4.01373C53.9893 3.62219 54.2002 3.62219 54.4112 3.62219H56.2475H56.4023H58.2393C58.4508 3.62219 58.6606 3.62219 58.6606 4.01373C58.6606 4.40557 58.4508 4.40557 58.2393 4.40557" fill="#318BFA"/>
<path d="M69.1447 1.88715C69.1447 1.75509 69.116 1.62943 69.0656 1.51522C69.0197 1.41194 68.9544 1.31765 68.8759 1.23624L68.8364 1.19848C68.7384 1.10769 68.6233 1.03527 68.4949 0.985743C68.3722 0.938078 68.2357 0.911769 68.0947 0.911769H62.9718C62.8303 0.911769 62.6944 0.938078 62.5717 0.985743C62.316 1.08396 62.1073 1.277 62.0007 1.51522C61.9492 1.62943 61.9211 1.75478 61.9211 1.88715V6.13967C61.9211 6.27173 61.9503 6.39739 62.0007 6.51181C62.1073 6.74869 62.3154 6.9441 62.5717 7.04273C62.6943 7.08957 62.8296 7.11619 62.9718 7.11619H68.0947C68.2357 7.11619 68.3709 7.0906 68.4949 7.04273C68.6233 6.99321 68.739 6.92026 68.8364 6.83082V6.82978L68.8376 6.82927C68.9345 6.73879 69.013 6.63169 69.0657 6.51191C69.1161 6.3975 69.1448 6.27183 69.1448 6.13977V4.40557H66.9072C66.6963 4.40557 66.4859 4.40557 66.4859 4.01372C66.4859 3.62218 66.6963 3.62218 66.9072 3.62218H69.5677C69.7786 3.62218 69.9891 3.8178 69.9891 4.01372V6.13977C69.9891 6.37614 69.938 6.60353 69.8452 6.81059C69.7489 7.02519 69.6078 7.21956 69.4325 7.38247V7.38299H69.4307C69.2571 7.5459 69.0473 7.67692 68.8157 7.76637C68.5934 7.85211 68.3493 7.9006 68.0947 7.9006H62.9718C62.7173 7.9006 62.4732 7.85211 62.2496 7.76637C62.018 7.67641 61.8082 7.54538 61.634 7.38247V7.38299C61.4592 7.22008 61.3176 7.02684 61.2225 6.81121C61.129 6.60415 61.078 6.37624 61.078 6.13988V1.88715C61.078 1.40823 61.2729 0.979656 61.634 0.644762C61.8082 0.482679 62.0174 0.351652 62.249 0.261686C62.4732 0.175435 62.7173 0.127563 62.9718 0.127563H68.0947C68.3493 0.127563 68.5934 0.175435 68.8175 0.261686C69.5271 0.536432 69.9891 1.17826 69.9891 1.88725C69.9891 2.08369 69.9891 2.27962 69.5677 2.27962C69.3717 2.27962 69.2651 2.22205 69.2049 2.13724H69.2056C69.1447 2.05377 69.1447 1.9702 69.1447 1.88715Z" fill="#4BC800"/>
<path d="M76.2331 0.911807H74.8089H72.9358C72.7943 0.911807 72.6584 0.938116 72.5357 0.985781C72.28 1.084 72.0713 1.27734 71.9647 1.51505C71.9143 1.62947 71.8856 1.75523 71.8856 1.8875V6.13981C71.8856 6.27187 71.9143 6.39753 71.9654 6.51144C72.0713 6.74945 72.28 6.94424 72.535 7.04277C72.6583 7.08961 72.7941 7.11623 72.9356 7.11623H74.8087H76.233H78.1056C78.2476 7.11623 78.3829 7.08961 78.5056 7.04277C78.7613 6.94424 78.9693 6.74935 79.0759 6.51144C79.1276 6.39753 79.1557 6.27187 79.1557 6.13981V1.8875C79.1557 1.75523 79.1276 1.62957 79.0766 1.51505C78.97 1.27734 78.7613 1.084 78.5056 0.985781C78.383 0.938116 78.2472 0.911807 78.1056 0.911807H76.2331ZM76.2331 7.90054H74.8089H72.9358C72.6813 7.90054 72.4372 7.85204 72.2136 7.76631C71.9815 7.67634 71.7728 7.54532 71.5974 7.38241V7.38292C71.4226 7.22002 71.2816 7.02678 71.1853 6.81115C71.0924 6.60346 71.0414 6.37669 71.0414 6.13981V1.8875C71.0414 1.40858 71.2369 0.979694 71.5974 0.645109C71.7722 0.482717 71.9808 0.351793 72.2124 0.261724C72.4371 0.175473 72.6801 0.127808 72.9358 0.127808H74.8089H76.2331H78.1057C78.3612 0.127808 78.6055 0.175473 78.8278 0.261724C79.0606 0.351793 79.2692 0.482717 79.4434 0.645109C79.8045 0.979797 80 1.40858 80 1.8875V6.13981C80 6.37669 79.9483 6.60357 79.8555 6.81115C79.7599 7.02678 79.6183 7.22002 79.4434 7.38292V7.38241C79.2692 7.54532 79.0594 7.67634 78.8278 7.76631C78.6042 7.85204 78.3601 7.90054 78.1057 7.90054" fill="#4BC800"/>
</g>
<defs>
<clipPath id="clip0_121_1137">
<rect width="80" height="7.80099" fill="white" transform="translate(0 0.0994873)"/>
</clipPath>
</defs>
</svg>
