<svg width="25" height="24" viewBox="0 0 25 24" fill="none" xmlns="http://www.w3.org/2000/svg">
<path d="M0.5 4.00002C0.5 1.79088 2.29086 1.52588e-05 4.5 1.52588e-05H20.5C22.7091 1.52588e-05 24.5 1.79088 24.5 4.00002V20C24.5 22.2092 22.7091 24 20.5 24H4.5C2.29086 24 0.5 22.2092 0.5 20V4.00002Z" fill="white"/>
<path d="M8.94444 9.33335C9.1963 9.33335 9.40756 9.24802 9.57822 9.07735C9.7483 8.90727 9.83333 8.69631 9.83333 8.44446C9.83333 8.19261 9.7483 7.98135 9.57822 7.81068C9.40756 7.64061 9.1963 7.55557 8.94444 7.55557C8.69259 7.55557 8.48133 7.64061 8.31067 7.81068C8.14059 7.98135 8.05556 8.19261 8.05556 8.44446C8.05556 8.69631 8.14059 8.90727 8.31067 9.07735C8.48133 9.24802 8.69259 9.33335 8.94444 9.33335ZM8.94444 12.8889C9.1963 12.8889 9.40756 12.8036 9.57822 12.6329C9.7483 12.4628 9.83333 12.2519 9.83333 12C9.83333 11.7482 9.7483 11.5369 9.57822 11.3662C9.40756 11.1962 9.1963 11.1111 8.94444 11.1111C8.69259 11.1111 8.48133 11.1962 8.31067 11.3662C8.14059 11.5369 8.05556 11.7482 8.05556 12C8.05556 12.2519 8.14059 12.4628 8.31067 12.6329C8.48133 12.8036 8.69259 12.8889 8.94444 12.8889ZM8.94444 16.4445C9.1963 16.4445 9.40756 16.3591 9.57822 16.1885C9.7483 16.0184 9.83333 15.8074 9.83333 15.5556C9.83333 15.3037 9.7483 15.0925 9.57822 14.9218C9.40756 14.7517 9.1963 14.6667 8.94444 14.6667C8.69259 14.6667 8.48133 14.7517 8.31067 14.9218C8.14059 15.0925 8.05556 15.3037 8.05556 15.5556C8.05556 15.8074 8.14059 16.0184 8.31067 16.1885C8.48133 16.3591 8.69259 16.4445 8.94444 16.4445ZM6.27778 20C5.78889 20 5.37022 19.8261 5.02178 19.4782C4.67393 19.1298 4.5 18.7111 4.5 18.2222V5.77779C4.5 5.2889 4.67393 4.87024 5.02178 4.52179C5.37022 4.17394 5.78889 4.00002 6.27778 4.00002H16.0556L20.5 8.44446V18.2222C20.5 18.7111 20.3261 19.1298 19.9782 19.4782C19.6298 19.8261 19.2111 20 18.7222 20H6.27778ZM6.27778 18.2222H18.7222V9.33335H15.1667V5.77779H6.27778V18.2222Z" fill="#7B61FF"/>
</svg>
