<svg width="24" height="25" viewBox="0 0 24 25" fill="none" xmlns="http://www.w3.org/2000/svg">
<mask id="mask0_121_37" style="mask-type:alpha" maskUnits="userSpaceOnUse" x="2" y="2" width="20" height="21">
<rect x="2" y="2.5" width="20" height="20" fill="#D9D9D9"/>
</mask>
<g mask="url(#mask0_121_37)">
<path d="M18.3333 20L13.0833 14.75C12.6667 15.0833 12.1875 15.3472 11.6458 15.5417C11.1042 15.7361 10.5278 15.8333 9.91667 15.8333C8.40278 15.8333 7.12167 15.3092 6.07333 14.2608C5.02444 13.2119 4.5 11.9306 4.5 10.4167C4.5 8.90278 5.02444 7.62139 6.07333 6.5725C7.12167 5.52417 8.40278 5 9.91667 5C11.4306 5 12.7119 5.52417 13.7608 6.5725C14.8092 7.62139 15.3333 8.90278 15.3333 10.4167C15.3333 11.0278 15.2361 11.6042 15.0417 12.1458C14.8472 12.6875 14.5833 13.1667 14.25 13.5833L19.5 18.8333L18.3333 20ZM9.91667 14.1667C10.9583 14.1667 11.8439 13.8022 12.5733 13.0733C13.3022 12.3439 13.6667 11.4583 13.6667 10.4167C13.6667 9.375 13.3022 8.48944 12.5733 7.76C11.8439 7.03111 10.9583 6.66667 9.91667 6.66667C8.875 6.66667 7.98944 7.03111 7.26 7.76C6.53111 8.48944 6.16667 9.375 6.16667 10.4167C6.16667 11.4583 6.53111 12.3439 7.26 13.0733C7.98944 13.8022 8.875 14.1667 9.91667 14.1667Z" fill="#939598"/>
</g>
</svg>
