<svg width="25" height="24" viewBox="0 0 25 24" fill="none" xmlns="http://www.w3.org/2000/svg">
<path d="M0.5 4C0.5 1.79086 2.29086 0 4.5 0H20.5C22.7091 0 24.5 1.79086 24.5 4V20C24.5 22.2091 22.7091 24 20.5 24H4.5C2.29086 24 0.5 22.2091 0.5 20V4Z" fill="white"/>
<path d="M18.1533 9.44444L18.6867 12.1111H6.31333L6.84667 9.44444H18.1533ZM19.6111 5H5.38889V6.77778H19.6111V5ZM19.6111 7.66667H5.38889L4.5 12.1111V13.8889H5.38889V19.2222H14.2778V13.8889H17.8333V19.2222H19.6111V13.8889H20.5V12.1111L19.6111 7.66667ZM7.16667 17.4444V13.8889H12.5V17.4444H7.16667Z" fill="#7B61FF"/>
</svg>
